<svg xmlns="http://www.w3.org/2000/svg" viewBox="0 0 2426.66 530.34">
    <defs>
        <style>.cls-1{fill:#c30d23;}.cls-2{fill:#f7f8f8;}.cls-3{fill:#f2f2f2;}.cls-4{fill:#f7931e;}</style>
    </defs>
    <title>资源 1</title>
    <g id="图层_2" data-name="图层 2">
        <g id="图层_1-2" data-name="图层 1">
            <g id="图层_1-2-2" data-name="图层 1-2">
                <rect class="cls-1" width="530.34" height="530.34" rx="68.49"/>
                <path class="cls-2" d="M230.51,325.11c-3.24,2.26-21.6,21.43-25.91,25.58,0,29.44-9.48,50.67-28.45,71.8s-46.6,31.71-82.91,31.71V165.44C93.24,111.58,159.94,72,204.6,72V223.19q16.13-17.53,45.19-48.69c19.36-20.76,56.21-61.15,62.13-67.94S329,92.6,345.41,85s50.16-11.32,101.27-11.32q-17.76,21.55-36.31,43.93T344.6,197q-47.21,57-48,58.66Q316,265.86,360,292.79t58.5,37.41Q433,340.69,441,372.72t8.07,83.6Z"/>
            </g>
            <path class="cls-3" d="M2016.66,385.51V339.9H2046V267.36l-33.61,4.11-5.33-44.82,38.94-4.84V123.35h-37.32V78.11H2046V26.65h64V78.11h34.39v45.24H2110v90.57l29.43-3.74,5.74,44.51L2110,259.16V362.89a16.68,16.68,0,0,1-2.84,9.6,25.06,25.06,0,0,1-7.61,7.13,38,38,0,0,1-10.35,4.42,43.12,43.12,0,0,1-11,1.47Z"/>
            <path d="M2109.51,27.15V78.61h34.39v44.24h-34.39v91.64l1.13-.14,28.36-3.61,5.62,43.51-34.24,4.36-.87.11V362.89a16.21,16.21,0,0,1-2.75,9.32,24.6,24.6,0,0,1-7.47,7,37.64,37.64,0,0,1-10.21,4.36,43,43,0,0,1-10.86,1.45h-61.06V340.4h29.35V266.79l-1.12.14-32.55,4-5.21-43.83,38-4.73.87-.11v-99.4h-37.32V78.61h37.32V27.15h63m1-1h-65V77.61h-37.32v46.24h37.32v97.52l-39,4.85L2012,272l33.54-4.11V339.4h-29.35V386h62.06a43.18,43.18,0,0,0,11.11-1.49,38.12,38.12,0,0,0,10.49-4.47,25.69,25.69,0,0,0,7.76-7.27,17.07,17.07,0,0,0,2.93-9.89V259.6l35.23-4.48-5.87-45.49-29.36,3.72v-89.5h34.39V77.61h-34.39V26.15Z"/>
            <path class="cls-3" d="M2203,386.44c-4.49,0-9.65-.1-15.62-.21-8.19-.15-18.36-.34-30.69-.34l-7.38-45.62h4.87c44.2,0,44.71-.38,71-20.37,4.94-3.77,11.1-8.45,18.6-13.9l.48-.36-83-79.86H2237c9.23,8.37,16.48,15.6,22.32,21.41,12.63,12.6,19.6,19.54,28.24,19.54,9.76,0,21.37-8.57,46.8-27.37l3.56-2.63V208h-174.1l-7-45.25h89.66V111.05H2158V65.8h88.48V26.65h64V65.8h95.62v45.25h-95.62v51.71h60.89a36.92,36.92,0,0,1,10.14,1.48,36.26,36.26,0,0,1,9.51,4.22,24.56,24.56,0,0,1,7.19,6.95,16,16,0,0,1,2.86,9.23v62.28c0,7.26-3.18,13.4-9.45,18.25l-62.55,46.59,78.36,73h-81.15l-41.67-40.43-.34.25c-8,6-14.65,11.08-20.51,15.56C2233.34,383.44,2229.43,386.44,2203,386.44Z"/>
            <path d="M2310,27.15V66.3h95.62v44.25H2310v52.71h61.39a36.28,36.28,0,0,1,10,1.46,35.16,35.16,0,0,1,9.38,4.17,24.09,24.09,0,0,1,7.05,6.81,15.45,15.45,0,0,1,2.77,8.94v62.28c0,7.09-3.12,13.1-9.24,17.84L2329.25,311l-1,.72.88.81,77,71.74h-79.68l-41.22-40-.61-.6-.68.51c-8,6-14.65,11.08-20.51,15.56-30.29,23.21-34.19,26.19-60.49,26.19-4.49,0-9.64-.1-15.61-.21-8.1-.15-18.13-.33-30.27-.34l-7.23-44.62h4.29c44.37,0,44.88-.38,71.31-20.48,5-3.76,11.1-8.44,18.59-13.89l1-.7-.86-.83-81.67-78.59h74.3c9.15,8.3,16.35,15.48,22.15,21.27,12.74,12.69,19.75,19.69,28.6,19.69,9.92,0,21.57-8.61,47.09-27.47l3.37-2.49.4-.3V207.51H2164.22l-6.83-44.25H2247V110.55h-88.48V66.3H2247V27.15h63m1-1h-65V65.3h-88.48v46.25H2246v50.71h-89.74l7.13,46.25h174v28c-27.47,20.29-39.85,29.76-49.86,29.76-12.38,0-21.14-14.51-50.37-41H2160l83.45,80.31c-46.22,33.64-36.74,34.18-89.31,34.18h-5.46l7.55,46.62c21.41,0,35.91.55,46.73.55,31.75,0,31.84-4.74,81.6-41.95l41.51,40.28h82.62l-78.85-73.47,62.07-46.24q9.65-7.46,9.65-18.64V184.64a16.39,16.39,0,0,0-2.95-9.51,25,25,0,0,0-7.33-7.09,36.46,36.46,0,0,0-9.64-4.28,37.34,37.34,0,0,0-10.28-1.5H2311V111.55h95.62V65.3H2311V26.15Z"/>
            <polygon class="cls-4" points="1787.19 127.94 1763.98 42.04 1822.49 42.04 1845.28 127.94 1787.19 127.94"/>
            <path d="M1822.1,42.54l22.53,84.9h-57.06l-22.94-84.9h57.47m.77-1h-59.55l23.49,86.9h59.12l-23.06-86.9Z"/>
            <polygon class="cls-4" points="1776.29 235.71 1753.49 149.81 1812.01 149.81 1834.39 235.71 1776.29 235.71"/>
            <path d="M1811.62,150.31l22.12,84.9h-57.06l-22.54-84.9h57.48m.77-1h-59.55l23.07,86.9H1835l-22.65-86.9Z"/>
            <polygon class="cls-3" points="1541.16 384.5 1549.92 176.66 1595.89 176.66 1586.3 384.5 1541.16 384.5"/>
            <path d="M1595.37,177.17,1585.82,384h-44.14l8.72-206.83h45m1.05-1h-47L1540.64,385h46.13l9.65-208.83Z"/>
            <polygon class="cls-3" points="1694.19 384.5 1685.42 176.66 1731.81 176.66 1739.74 384.5 1694.19 384.5"/>
            <path d="M1731.32,177.17l7.9,206.83h-44.55l-8.73-206.83h45.38m1-1H1684.9L1693.71,385h46.55l-8-208.83Z"/>
            <path class="cls-3" d="M1860.27,384.87V305.81H1749.15V260.57h66.3c22.11-.55,33.63-2.56,39.29-12.51s5.58-27.3,5.54-59c0-2.88,0-5.89,0-9V26h64V260.57h20.13v45.24h-20.13v79.06Z"/>
            <path d="M1923.78,26.51V261.07h20.13v44.24h-20.13v79.06h-63V305.31H1749.65V261.07h65.83c22.29-.55,33.91-2.61,39.7-12.76,5.67-9.95,5.64-27.46,5.6-59.24,0-2.88,0-5.89,0-9V26.51h63m1-1h-65V180.06c0,71.47,2.14,78.85-44.32,80h-66.8v46.24h111.12v79.06h65V306.31h20.13V260.07h-20.13V25.51Z"/>
            <polygon class="cls-3" points="1609.08 384.5 1609.08 156.28 1540.72 156.28 1540.72 111.03 1609.08 111.03 1609.08 75.72 1546.59 75.72 1546.59 30.48 1734.31 30.48 1734.31 75.72 1673.08 75.72 1673.08 111.03 1739.76 111.03 1739.76 156.28 1673.08 156.28 1673.08 384.5 1609.08 384.5"/>
            <path d="M1733.81,31V75.22h-61.23v36.31h66.68v44.25h-66.68V384h-63V155.78h-68.36V111.53h68.36V75.22h-62.49V31h186.72m1-1H1546.09V76.22h62.49v34.31h-68.36v46.25h68.36V385h65V156.78h66.68V110.53h-66.68V76.22h61.23V30Z"/>
            <path class="cls-3" d="M1117,382.43l46.13-275.59h-71.81V61.6h164.82V25.42h64V61.6h168.58v45.24H1227.92l-8.55,52.09h242.49V357.2a17.12,17.12,0,0,1-3.67,11.06,29.53,29.53,0,0,1-9.56,7.51,53.49,53.49,0,0,1-12.73,4.43,62.52,62.52,0,0,1-13.13,1.48l-168.67-.46,8.66-45.24,135.09.46V204.17H1211.57l-29.36,178.26Z"/>
            <path d="M1319.61,25.92V62.1h168.58v44.24H1227.5l-.14.84L1219,158.27l-.19,1.16h242.58V357.2a16.59,16.59,0,0,1-3.55,10.73,29.16,29.16,0,0,1-9.4,7.39,52.64,52.64,0,0,1-12.61,4.39,62.22,62.22,0,0,1-13,1.47h-.12l-168-.46,8.48-44.24,134.17.46h1V203.67H1211.14l-.14.84-29.21,177.42h-64.23l45.93-274.43.2-1.16h-71.9V62.1h164.82V25.92h63m1-1h-65V61.1H1090.79v46.24h71.72l-46.13,275.59h66.25L1212,204.67h185.36V335.94l-135-.46-8.86,46.24,169.16.46h.13a63.94,63.94,0,0,0,13.23-1.49,53.52,53.52,0,0,0,12.85-4.48,30.23,30.23,0,0,0,9.72-7.64,17.48,17.48,0,0,0,3.78-11.37V158.43H1220l8.39-51.09h260.84V61.1H1320.61V24.92Z"/>
            <path class="cls-3" d="M961.1,106.17V86H697.16v20.13h-64V66.4a19,19,0,0,1,2.65-9.64A26.11,26.11,0,0,1,643,48.9a32.35,32.35,0,0,1,12.2-6.26,53.73,53.73,0,0,1,13.93-1.85H795.87V25.88h64.42V40.79H1025.1v65.38Z"/>
            <path d="M859.79,26.38V41.29H1024.6v64.38h-63V85.54H696.66v20.13h-63V66.4A18.41,18.41,0,0,1,636.25,57a25.36,25.36,0,0,1,7.06-7.72h0l0,0a32,32,0,0,1,12-6.15,53.15,53.15,0,0,1,13.8-1.83H796.37V26.38h63.42m1-1H795.37V40.29H669.15a53.56,53.56,0,0,0-14.06,1.87,32.78,32.78,0,0,0-12.37,6.33,26.49,26.49,0,0,0-7.34,8,19.37,19.37,0,0,0-2.72,9.89v40.27h65V86.54H960.6v20.13h65V40.29H860.79V25.38Z"/>
            <polygon class="cls-3" points="881.84 178.14 881.84 163.23 776.43 163.23 776.43 178.14 712.42 178.14 712.42 163.23 630.23 163.23 630.23 117.98 712.42 117.98 712.42 99.71 776.43 99.71 776.43 117.98 881.84 117.98 881.84 99.71 945.43 99.71 945.43 117.98 1028.04 117.98 1028.04 163.23 945.43 163.23 945.43 178.14 881.84 178.14"/>
            <path d="M944.93,100.21v18.27h82.61v44.25H944.93v14.91H882.34V162.73H775.93v14.91h-63V162.73H630.73V118.48h82.19V100.21h63v18.27H882.34V100.21h62.59m1-1H881.34v18.27H776.93V99.21h-65v18.27H629.73v46.25h82.19v14.91h65V163.73H881.34v14.91h64.59V163.73h82.61V117.48H945.93V99.21Z"/>
            <path class="cls-3" d="M928.81,308.3V233H725.68v73.1h-64V213a17.43,17.43,0,0,1,3.47-10.53,32.3,32.3,0,0,1,8.67-8.07,39.43,39.43,0,0,1,11.8-5,53.38,53.38,0,0,1,12.88-1.66H992.82V308.3Z"/>
            <path d="M992.32,188.23V307.8h-63V232.46H725.18v73.1h-63V213a16.9,16.9,0,0,1,3.37-10.23,31.81,31.81,0,0,1,8.54-7.95,39,39,0,0,1,11.66-4.91,52.73,52.73,0,0,1,12.75-1.64H992.32m1-1H698.5a53.43,53.43,0,0,0-13,1.67,39.92,39.92,0,0,0-12,5,32.57,32.57,0,0,0-8.81,8.2A17.78,17.78,0,0,0,661.18,213v93.6h65v-73.1H928.31V308.8h65V187.23Z"/>
            <path class="cls-3" d="M852.41,384.74a39.22,39.22,0,0,1-10.35-1.47,35.36,35.36,0,0,1-9.72-4.23,24.23,24.23,0,0,1-7-6.57,15.16,15.16,0,0,1-2.64-8.85V332.25l-.71.33c-24.26,11.36-41.42,20.12-55.2,27.16-47.26,24.13-48.24,24.63-132,24.63l-4.51-45.24c64.52-.07,86.33-11,129.65-32.72,10.84-5.43,23.12-11.59,37.75-18.42l.29-.13v-46l64,3.67v57.33a14.11,14.11,0,0,1-.41,3.42,20.19,20.19,0,0,1-1.24,3.46l-.32.7h22.51v32.07h85.29v-17.9h59.81v39a16.09,16.09,0,0,1-2.64,9.05,23.42,23.42,0,0,1-7,6.74,31.58,31.58,0,0,1-9.71,4,44.43,44.43,0,0,1-10.36,1.29Z"/>
            <path d="M798.47,242.36l63,3.61v56.86a14.14,14.14,0,0,1-.39,3.3,20.93,20.93,0,0,1-1.21,3.37l-.64,1.41H882V343h86.29v-17.9h58.81v38.53a15.29,15.29,0,0,1-2.56,8.78,22.57,22.57,0,0,1-6.83,6.6,31.5,31.5,0,0,1-9.55,4,44.61,44.61,0,0,1-10.25,1.27H852.41a39.12,39.12,0,0,1-10.22-1.45,35,35,0,0,1-9.59-4.17,24,24,0,0,1-6.84-6.44,14.65,14.65,0,0,1-2.55-8.57V331.46l-1.42.67c-24.27,11.36-41.43,20.12-55.22,27.16-47.07,24-48.14,24.58-131.33,24.58l-4.41-44.24c64.22-.13,86.06-11.08,129.33-32.77,10.83-5.43,23.11-11.59,37.73-18.41l.58-.27V242.36m-1-1.06v46.24c-73.27,34.2-86.73,51.09-167.74,51.09l4.61,46.24c108.64,0,79.48-1.1,187.87-51.84v30.58a15.56,15.56,0,0,0,2.73,9.14,24.56,24.56,0,0,0,7.13,6.71,35.74,35.74,0,0,0,9.85,4.29,39.51,39.51,0,0,0,10.49,1.49H997.93a44.9,44.9,0,0,0,10.48-1.3,32.34,32.34,0,0,0,9.86-4.1,23.87,23.87,0,0,0,7.13-6.9,16.45,16.45,0,0,0,2.72-9.33V324.08H967.31V342H883V309.91H860.79a22.07,22.07,0,0,0,1.27-3.54,15.06,15.06,0,0,0,.42-3.54V245l-65-3.73Z"/>
            <path class="cls-3" d="M2373,500.06v-32.8l-32.07-56.9h21.77l10.67,21.89c2.74,6,5.86,12.83,9.35,20.06l.13.28H2384l.14-.28c1-2.18,2.08-4.3,3.1-6.39,2.28-4.66,4.43-9.06,6.54-13.69l10.67-21.87h21.32l-32.21,56.9v32.8Z"/>
            <path d="M2425,410.86l-31.73,56-.13.23v32.43h-19.62V467.13l-.13-.23-31.58-56h20.59l10.53,21.58c2.75,6,5.86,12.85,9.36,20.09l.27.56h1.84l.27-.57c1.05-2.18,2.09-4.3,3.11-6.39,2.28-4.66,4.43-9.06,6.53-13.66l10.53-21.61H2425m1.71-1h-22.49L2393.36,432c-3.07,6.72-6.28,13.09-9.64,20.06h-.58c-3.37-7-6.28-13.34-9.35-20.06L2363,409.86H2340l32.43,57.53v33.17h21.62V467.39l32.57-57.53Z"/>
            <path class="cls-3" d="M2296.86,501.78c-31.2,0-51.36-18.13-51.36-46.2,0-14.12,5.18-26.06,15-34.55,9.2-8,22.13-12.38,36.39-12.38,15.9,0,26.51,6,32.71,11.18l-10.7,10.82a32.26,32.26,0,0,0-21.29-7.43c-18.84,0-31,12.46-31,31.75,0,20.71,11.59,32.12,32.63,32.12,5.44,0,10.71-1.35,13.73-3.52l.21-.15V464.76H2294V450.93h37.41v40.2C2323.18,497.8,2310.28,501.78,2296.86,501.78Z"/>
            <path d="M2296.86,409.15c15.39,0,25.78,5.67,32,10.71l-10,10.12a32.67,32.67,0,0,0-21.24-7.26c-19.16,0-31.53,12.66-31.53,32.25,0,21,11.77,32.62,33.13,32.62,5.54,0,10.92-1.39,14-3.62l.41-.3V464.26H2294.5V451.43h36.41v39.46c-8.15,6.51-20.84,10.39-34,10.39-14.68,0-27.23-4.07-36.29-11.76C2251,481.43,2246,469.7,2246,455.58c0-14,5.12-25.78,14.79-34.17,9.12-7.91,21.93-12.26,36.07-12.26m0-1c-28.78,0-51.86,17.52-51.86,47.43,0,30.27,22.5,46.7,51.86,46.7,15,0,27.74-4.9,35-10.91V450.43H2293.5v14.83h19.13v17.9c-3.07,2.2-8.32,3.43-13.44,3.43-21.32,0-32.13-11.89-32.13-31.62,0-19.49,12.56-31.25,30.53-31.25,9.78,0,15.91,3.3,21.32,7.59l11.39-11.52c-7-6-17.81-11.64-33.44-11.64Z"/>
            <path class="cls-3" d="M2181.8,501.78c-29.06,0-47.84-18.42-47.84-46.93s18.33-46.2,47.84-46.2c14.14,0,26.09,4.21,34.57,12.18,8.68,8.17,13.28,19.93,13.28,34C2229.65,483.36,2210.87,501.78,2181.8,501.78Zm0-78.56c-16.52,0-26.79,12.12-26.79,31.63s10.52,32.24,26.79,32.24,26.79-12.66,26.79-32.24S2198.33,423.22,2181.8,423.22Z"/>
            <path d="M2181.8,409.15c14,0,25.84,4.17,34.22,12.05,8.59,8.07,13.13,19.7,13.13,33.65,0,28.2-18.59,46.43-47.35,46.43s-47.34-18.23-47.34-46.43c0-14,4.53-25.65,13.12-33.7,8.37-7.85,20.2-12,34.22-12m0,78.44c16.58,0,27.29-12.85,27.29-32.74s-10.45-32.13-27.29-32.13-27.29,12.31-27.29,32.13,10.71,32.74,27.29,32.74m0-79.44c-28.63,0-48.34,17.16-48.34,46.7s19.71,47.43,48.34,47.43,48.35-18,48.35-47.43-19.72-46.7-48.35-46.7Zm0,78.44c-16.07,0-26.29-12.38-26.29-31.74s10.22-31.13,26.29-31.13,26.29,11.64,26.29,31.13-10.22,31.74-26.29,31.74Z"/>
            <polygon class="cls-3" points="2059.9 500.06 2059.9 410.36 2080.51 410.36 2080.51 485.86 2124.48 485.86 2124.48 500.06 2059.9 500.06"/>
            <path d="M2080,410.86v75.5h44v13.2H2060.4v-88.7H2080m1-1H2059.4v90.7H2125v-15.2h-44v-75.5Z"/>
            <path class="cls-3" d="M1993.8,501.78c-29.06,0-47.84-18.42-47.84-46.93s18.34-46.2,47.84-46.2c14.14,0,26.1,4.21,34.58,12.18,8.68,8.17,13.28,19.93,13.28,34C2041.66,483.36,2022.87,501.78,1993.8,501.78Zm0-78.56c-16.52,0-26.78,12.12-26.78,31.63s10.51,32.24,26.78,32.24,26.8-12.66,26.8-32.24S2010.33,423.22,1993.8,423.22Z"/>
            <path d="M1993.81,409.15c14,0,25.84,4.17,34.22,12.05,8.59,8.07,13.13,19.7,13.13,33.65,0,28.2-18.59,46.43-47.35,46.43s-47.34-18.23-47.34-46.43c0-14,4.53-25.65,13.11-33.7,8.37-7.85,20.2-12,34.23-12m0,78.44c16.58,0,27.29-12.85,27.29-32.74s-10.46-32.13-27.29-32.13-27.29,12.31-27.29,32.13,10.71,32.74,27.29,32.74m0-79.44c-28.63,0-48.34,17.16-48.34,46.7s19.71,47.43,48.34,47.43,48.35-18,48.35-47.43-19.72-46.7-48.35-46.7Zm0,78.44c-16.07,0-26.29-12.38-26.29-31.74s10.22-31.13,26.29-31.13,26.29,11.64,26.29,31.13-10.22,31.74-26.29,31.74Z"/>
            <path class="cls-3" d="M1906.44,500.06l-31.11-48.22-11.07-19.67h-1.59l.06.55c.22,2.06.46,4.19.71,6.37a228.87,228.87,0,0,1,1.92,25.11v35.86h-19.44v-89.7h21.28l31.25,48.11,10.93,19.8H1911l-.06-.56c-.22-2-.47-4.2-.74-6.44-1-8-2-17.16-2-25.17V410.36h19.45v89.7Z"/>
            <path d="M1927.08,410.86v88.7h-20.36l-31-48-10.93-19.42-.29-.51h-2.43l.12,1.11c.21,2.06.45,4.19.7,6.37a225.73,225.73,0,0,1,1.92,25.06v35.36h-18.45v-88.7h20.52L1898,458.71l10.79,19.54.29.52h2.43l-.12-1.11c-.22-2.05-.48-4.21-.74-6.45-1-8-2-17.13-2-25.11V410.86h18.45m1-1h-20.45V446.1c0,10.26,1.76,22.25,2.78,31.67h-.73l-10.81-19.57-31.4-48.34h-22.06v90.7h20.45V464.2c0-10.37-1.6-21.75-2.63-31.54h.73l11,19.45,31.25,48.45h21.91v-90.7Z"/>
            <polygon class="cls-3" points="1800.29 500.06 1800.29 460.84 1758.39 460.84 1758.39 500.06 1737.77 500.06 1737.77 410.36 1758.39 410.36 1758.39 446.03 1800.29 446.03 1800.29 410.36 1820.76 410.36 1820.76 500.06 1800.29 500.06"/>
            <path d="M1820.26,410.86v88.7h-19.47V460.34h-42.9v39.22h-19.62v-88.7h19.62v35.67h42.9V410.86h19.47m1-1h-21.47v35.67h-40.9V409.86h-21.62v90.7h21.62V461.34h40.9v39.22h21.47v-90.7Z"/>
            <path class="cls-3" d="M1683.32,501.78c-29.31,0-49-18.57-49-46.2s20.45-46.93,49.74-46.93a47.48,47.48,0,0,1,31,11.18l-10.56,10.81c-6.49-5.06-12.84-7.42-20-7.42-17.42,0-29.13,12.76-29.13,31.75,0,19.81,11,32.12,28.69,32.12,8.34,0,15.65-2.87,22.33-8.76l10.7,10.58C1708.15,497.45,1696.79,501.78,1683.32,501.78Z"/>
            <path d="M1684.05,409.15a47.07,47.07,0,0,1,30.23,10.71L1704.41,430c-6.46-5-12.81-7.26-19.92-7.26-17.72,0-29.63,13-29.63,32.25,0,20.12,11.19,32.62,29.19,32.62,8.33,0,15.63-2.81,22.31-8.58l10,9.9c-8.78,8.21-19.89,12.37-33,12.37-13.53,0-25.73-4.17-34.34-11.75-9.27-8.16-14.17-19.9-14.17-33.95s5-25.73,14.54-34.18c8.9-7.9,21.22-12.25,34.7-12.25m0-1c-27.31,0-50.24,17.52-50.24,47.43,0,30.27,22.2,46.7,49.51,46.7,14,0,25.56-4.66,34.47-13.36l-11.39-11.28c-5.84,5.27-13,8.95-22.35,8.95-17.09,0-28.19-11.89-28.19-31.62,0-19.49,12.27-31.25,28.63-31.25,8.18,0,14.46,3.18,20,7.59l11.25-11.52a48.3,48.3,0,0,0-31.7-11.64Z"/>
            <polygon class="cls-3" points="1549.29 500.06 1549.29 410.36 1614.6 410.36 1614.6 424.57 1569.91 424.57 1569.91 446.4 1607.88 446.4 1607.88 460.6 1569.91 460.6 1569.91 485.86 1616.21 485.86 1616.21 500.06 1549.29 500.06"/>
            <path d="M1614.1,410.86v13.21h-44.69V446.9h38v13.2h-38v26.26h46.3v13.2h-65.92v-88.7h64.31m1-1h-66.31v90.7h67.92v-15.2h-46.3V461.1h38V445.9h-38V425.07h44.69V409.86Z"/>
            <polygon class="cls-3" points="1484.93 500.06 1484.93 424.57 1454.55 424.57 1454.55 410.36 1536.22 410.36 1536.22 424.57 1505.55 424.57 1505.55 500.06 1484.93 500.06"/>
            <path d="M1535.72,410.86v13.21h-30.67v75.49h-19.62V424.07h-30.38V410.86h80.67m1-1h-82.67v15.21h30.38v75.49h21.62V425.07h30.67V409.86Z"/>
            <path class="cls-3" d="M1409.09,504.8c-31.19,0-51.35-18.13-51.35-46.19,0-14.12,5.17-26.07,15-34.56,9.21-8,22.13-12.38,36.39-12.38,15.9,0,26.51,6,32.71,11.18l-10.69,10.82a32.35,32.35,0,0,0-21.29-7.43c-18.85,0-31,12.46-31,31.75,0,20.72,11.59,32.12,32.63,32.12,5.45,0,10.71-1.35,13.74-3.52l.21-.15V467.79h-19.14V454h37.42v40.2C1435.41,500.82,1422.52,504.8,1409.09,504.8Z"/>
            <path d="M1409.09,412.17c15.4,0,25.78,5.67,32,10.72l-10,10.11a32.65,32.65,0,0,0-21.24-7.26c-19.15,0-31.53,12.66-31.53,32.25,0,21,11.77,32.62,33.13,32.62,5.55,0,10.92-1.38,14-3.62l.42-.3v-19.4h-19.14V454.46h36.42v39.46c-8.16,6.51-20.84,10.38-34.06,10.38-14.68,0-27.23-4.06-36.29-11.76-9.52-8.09-14.56-19.82-14.56-33.93s5.11-25.79,14.79-34.18c9.12-7.91,21.92-12.26,36.06-12.26m0-1c-28.77,0-51.85,17.53-51.85,47.44,0,30.27,22.49,46.69,51.85,46.69,15,0,27.75-4.9,35.06-10.91V453.46h-38.42v14.83h19.14v17.89c-3.07,2.21-8.33,3.43-13.45,3.43-21.32,0-32.13-11.89-32.13-31.62,0-19.49,12.57-31.25,30.53-31.25,9.79,0,15.92,3.31,21.33,7.6l11.39-11.52c-7-6-17.82-11.65-33.45-11.65Z"/>
            <path class="cls-3" d="M1307.65,503.08l-31.11-48.22-11.08-19.67h-1.58l0,.55c.22,2.07.46,4.21.71,6.4a225.9,225.9,0,0,1,1.92,25.08v35.86h-19.45v-89.7h21.29l31.25,48.11,10.94,19.8h1.58l-.06-.56c-.22-2-.48-4.17-.74-6.4-.95-8.05-2-17.19-2-25.21V413.38h19.44v89.7Z"/>
            <path d="M1328.28,413.88v88.7h-20.36l-31-48L1266,435.2l-.28-.51h-2.43l.12,1.1c.21,2.07.46,4.21.71,6.4a227.78,227.78,0,0,1,1.91,25v35.36h-18.45v-88.7h20.52l31.08,47.85,10.8,19.54.28.52h2.43l-.12-1.11c-.22-2-.47-4.18-.73-6.4-1-8-2-17.17-2-25.16V413.88h18.44m1-1h-20.44v36.24c0,10.26,1.75,22.25,2.77,31.67h-.73l-10.81-19.57-31.4-48.34h-22.06v90.7h20.45V467.22c0-10.37-1.6-21.75-2.63-31.53h.73l10.95,19.44,31.26,48.45h21.91v-90.7Z"/>
            <path class="cls-3" d="M1205,503.08l-7.59-23.28h-35.78l-7.6,23.28H1133.2l34.24-89.7h24.72l34.38,89.7Zm-26.4-76.48c-2.7,9.62-5.88,19.84-9.2,29.55L1166,466.7h27.08l-3.42-10.54c-2.31-6.46-4.43-13.45-6.48-20.21-1-3.15-1.91-6.29-2.87-9.36l-.11-.35h-1.48Z"/>
            <path d="M1191.82,413.88l34,88.7h-20.46L1198,480l-.23-.69h-36.51l-.22.69-7.37,22.59h-19.73l33.85-88.7h24m-26.54,53.32h28.46l-.43-1.31-3.22-9.91c-2.29-6.43-4.41-13.43-6.46-20.19-.94-3.08-1.91-6.28-2.88-9.35l-.22-.7h-2.22l-.2.73c-2.7,9.61-5.88,19.82-9.19,29.54l-3.22,9.88-.42,1.31m27.23-54.32h-25.42l-34.61,90.7h21.91L1162,480.3h35l7.6,23.28h22.64l-34.76-90.7Zm-25.85,53.32,3.21-9.89c3.21-9.41,6.42-19.69,9.2-29.57h.73c3.07,9.76,6,20.16,9.35,29.57l3.21,9.89Z"/>
            <polygon class="cls-3" points="1061.2 503.08 1061.2 413.38 1126.81 413.38 1126.81 427.59 1081.82 427.59 1081.82 452.12 1120.23 452.12 1120.23 466.31 1081.82 466.31 1081.82 503.08 1061.2 503.08"/>
            <path d="M1126.31,413.88v13.21h-45v25.53h38.41v13.19h-38.41v36.77H1061.7v-88.7h64.61m1-1H1060.7v90.7h21.62V466.81h38.41V451.62h-38.41V428.09h45V412.88Z"/>
            <path class="cls-3" d="M1005.7,503.08l-31.1-48.22-11.09-19.67h-1.58l.06.55c.22,2.05.46,4.18.7,6.35a226.83,226.83,0,0,1,1.93,25.13v35.86H945.17v-89.7h21.29l31.25,48.11,10.94,19.8h1.57l-.06-.56c-.22-2-.47-4.18-.73-6.41-1-8.05-2-17.18-2-25.2V413.38h19.45v89.7Z"/>
            <path d="M1026.34,413.88v88.7H1006l-31-48L964.09,435.2l-.28-.51h-2.43l.11,1.1q.33,3.09.71,6.36a228.34,228.34,0,0,1,1.92,25.07v35.36H945.67v-88.7h20.51l31.09,47.85,10.8,19.54.28.52h2.43l-.12-1.11c-.22-2-.47-4.19-.74-6.42-.95-8-2-17.15-2-25.14V413.88h18.45m1-1h-20.45v36.24c0,10.26,1.76,22.25,2.78,31.67h-.73l-10.81-19.57-31.4-48.34H944.67v90.7h20.45V467.22c0-10.37-1.6-21.75-2.63-31.53h.73l11,19.44,31.25,48.45h21.91v-90.7Z"/>
            <path class="cls-3" d="M903.05,503.08l-7.59-23.28H859.68l-7.6,23.28H831.26l34.24-89.7h24.72l34.38,89.7Zm-26.4-76.48c-2.71,9.64-5.89,19.86-9.2,29.55L864,466.7h27.08l-3.43-10.54c-2.3-6.45-4.42-13.43-6.46-20.19-1-3.16-1.92-6.3-2.88-9.38l-.11-.35h-1.48Z"/>
            <path d="M889.88,413.88l34,88.7H903.42L896,480l-.22-.69H859.31l-.22.69-7.37,22.59H832l33.85-88.7h24M863.34,467.2H891.8l-.43-1.31L888.15,456c-2.29-6.43-4.41-13.41-6.46-20.16-.94-3.1-1.91-6.3-2.88-9.38l-.22-.7h-2.22l-.2.73c-2.71,9.63-5.89,19.84-9.2,29.54l-3.21,9.88-.42,1.31m27.22-54.32H865.15l-34.62,90.7h21.91L860,480.3h35.05l7.6,23.28h22.64l-34.77-90.7ZM864.71,466.2l3.22-9.89c3.21-9.41,6.42-19.69,9.2-29.57h.73c3.07,9.76,6,20.16,9.35,29.57l3.21,9.89Z"/>
            <path class="cls-3" d="M772.2,504.8c-28,0-41.57-13.73-41.57-42V413.38h20.62v51c0,17.53,6.65,25.7,21,25.7,14.69,0,21.53-8.17,21.53-25.7v-51h19.74v49.43C813.47,491.07,800,504.8,772.2,504.8Z"/>
            <path d="M813,413.88v48.93c0,27.92-13.34,41.49-40.77,41.49-13.27,0-23.44-3.26-30.21-9.68-7.21-6.83-10.86-17.54-10.86-31.81V413.88h19.62v50.53c0,9.36,1.88,16,5.77,20.34,3.54,3.94,8.67,5.86,15.68,5.86,14.82,0,22-8.57,22-26.2V413.88H813m1-1H793.23v51.53c0,18.85-8.18,25.2-21,25.2-12.57,0-20.45-6.35-20.45-25.2V412.88H730.13v49.93c0,30.11,15.77,42.49,42.07,42.49S814,492.92,814,462.81V412.88Z"/>
            <polygon class="cls-3" points="690.75 503.08 662.5 462.04 647.77 477.93 647.77 503.08 627.16 503.08 627.16 413.38 647.77 413.38 647.77 452.79 648.94 452.79 684.72 413.38 707.16 413.38 674.65 448.59 713.19 503.08 690.75 503.08"/>
            <path d="M706,413.88,674.56,448l-.55.59.47.66,37.74,53.37H691l-27.74-40.31-.71-1-.85.91-14.17,15.3-.27.29v24.84H627.66v-88.7h19.61v39.41h1.89l.3-.33,35.48-39.08H706m2.29-1H684.5l-35.78,39.41h-.45V412.88H626.66v90.7h21.61V478.13l14.17-15.3,28,40.75h23.66L675.3,448.63l33-35.75Z"/>
        </g>
    </g>
</svg>
