<svg xmlns="http://www.w3.org/2000/svg" viewBox="0 0 146.88 146.4"><defs><style>.cls-1{fill:#e55927;}.cls-2{fill:#32a2d3;}.cls-3{fill:#f1ab40;}.cls-4{fill:#88be43;}</style></defs><title>资源 16</title><g id="图层_2" data-name="图层 2"><g id="图层_1-2" data-name="图层 1"><path class="cls-1" d="M12.26,40.93H71a0,0,0,0,1,0,0V78.8a0,0,0,0,1,0,0H-4.74a0,0,0,0,1,0,0V57.93A17,17,0,0,1,12.26,40.93Z" transform="translate(-32.63 40.96) rotate(-45)"/><path class="cls-2" d="M39.26,94.34H98a0,0,0,0,1,0,0v37.87a0,0,0,0,1,0,0H22.26a0,0,0,0,1,0,0V111.34A17,17,0,0,1,39.26,94.34Z" transform="translate(22.55 235.89) rotate(-135)"/><path class="cls-3" d="M92.87,67.41h58.74a0,0,0,0,1,0,0v37.87a0,0,0,0,1,0,0H75.87a0,0,0,0,1,0,0V84.41A17,17,0,0,1,92.87,67.41Z" transform="translate(255.24 66.98) rotate(135)"/><path class="cls-4" d="M65.9,14.19h58.74a0,0,0,0,1,0,0V52.06a0,0,0,0,1,0,0H48.9a0,0,0,0,1,0,0V31.19A17,17,0,0,1,65.9,14.19Z" transform="translate(48.84 -51.65) rotate(45)"/></g></g></svg>