<svg t="1641608451802" class="icon" viewBox="0 0 1024 1024" version="1.1" xmlns="http://www.w3.org/2000/svg" p-id="1903" width="240" height="240">
    <path d="M0 0m132.243014 0l759.513972 0q132.243014 0 132.243014 132.243014l0 759.513972q0 132.243014-132.243014 132.243014l-759.513972 0q-132.243014 0-132.243014-132.243014l0-759.513972q0-132.243014 132.243014-132.243014Z" fill="#C30D23" p-id="1904" data-spm-anchor-id="a313x.7781069.0.i16" class=""></path>
    <path d="M445.077196 627.734359c-6.255911 4.363691-41.706075 41.377833-50.027982 49.390806 0 56.843836-18.304333 97.835502-54.932308 138.634084s-89.976996 61.226836-160.085681 61.226835V319.437644c0-103.994871 128.786816-180.417393 215.017989-180.417393v291.923219q31.144398-33.847569 87.254516-94.012445c37.381001-40.084172 108.532338-118.070672 119.962891-131.181053S635.245314 178.79549 666.930347 164.12113s96.850775-21.857073 195.535844-21.857073q-34.291662 41.628842-70.108684 84.821662T665.366369 380.374854q-91.154806 110.057699-92.680168 113.262888 37.400309 19.694536 122.318513 71.691971t112.953954 72.232606Q836.052344 657.797488 851.499038 719.6615t15.581854 161.417958z" fill="#F7F8F8" p-id="1905"></path>
</svg>
