<!-- <svg xmlns="http://www.w3.org/2000/svg" viewBox="0 0 573.09 146.4"><defs><style>.cls-1{fill:#e55927;}.cls-2{fill:#32a2d3;}.cls-3{fill:#f1ab40;}.cls-4{fill:#88be43;}.cls-5,.cls-6{fill:#333;}.cls-5{fill-rule:evenodd;}.cls-6{font-size:36px;font-family:MicrosoftYaHei-Bold, Microsoft YaHei;font-weight:700;letter-spacing:0.01em;}.cls-7{letter-spacing:-0.01em;}.cls-8{letter-spacing:0.03em;}.cls-9{letter-spacing:0em;}</style></defs><title>资源 10</title><g id="图层_2" data-name="图层 2"><g id="图层_1-2" data-name="图层 1"><path class="cls-1" d="M12.26,40.93H71a0,0,0,0,1,0,0V78.8a0,0,0,0,1,0,0H-4.74a0,0,0,0,1,0,0V57.93A17,17,0,0,1,12.26,40.93Z" transform="translate(-32.63 40.96) rotate(-45)"/><path class="cls-2" d="M39.26,94.34H98a0,0,0,0,1,0,0v37.87a0,0,0,0,1,0,0H22.26a0,0,0,0,1,0,0V111.34A17,17,0,0,1,39.26,94.34Z" transform="translate(22.55 235.89) rotate(-135)"/><path class="cls-3" d="M92.87,67.41h58.74a0,0,0,0,1,0,0v37.87a0,0,0,0,1,0,0H75.87a0,0,0,0,1,0,0V84.41A17,17,0,0,1,92.87,67.41Z" transform="translate(255.24 66.98) rotate(135)"/><path class="cls-4" d="M65.9,14.19h58.74a0,0,0,0,1,0,0V52.06a0,0,0,0,1,0,0H48.9a0,0,0,0,1,0,0V31.19A17,17,0,0,1,65.9,14.19Z" transform="translate(48.84 -51.65) rotate(45)"/><path class="cls-5" d="M491.67,57.67l7.89-1v-21H492V25.75h7.55v-11h13.16V25.75h7v9.93h-7V54.9l5.95-.8,1.19,9.77-7.14,1V87a3.78,3.78,0,0,1-.59,2.12,5.19,5.19,0,0,1-1.57,1.56,7.7,7.7,0,0,1-2.12,1,8.54,8.54,0,0,1-2.25.32H493.62V82h5.94V66.62l-6.79.89Z"/><path class="cls-5" d="M565.54,43.93a7.36,7.36,0,0,1,2.08.32,7.58,7.58,0,0,1,2,.92,5.23,5.23,0,0,1,1.48,1.52,3.7,3.7,0,0,1,.6,2.05V62.11a5,5,0,0,1-1.95,4l-12.57,9.93,16,15.78H556.37L548,83.18c-13.51,10.71-8.93,8.89-26,8.89l-1.53-10c11.89,0,9.52.13,19.19-7.34l-16.9-17.24h15.63c10.7,10.27,7.84,12.15,20.29,2.4v-6H523.42L522,43.93h18.17V33H522.23V23.11h17.92V14.7h13.16v8.41h19.36V33H553.31V43.93Z"/><polygon class="cls-5" points="438.46 36.67 433.71 18 445.76 18 450.43 36.67 438.46 36.67"/><polygon class="cls-5" points="436.25 59.81 431.58 41.15 443.64 41.15 448.23 59.81 436.25 59.81"/><polygon class="cls-5" points="388.62 91.77 390.4 46.92 399.91 46.92 397.96 91.77 388.62 91.77"/><polygon class="cls-5" points="419.61 91.77 417.83 46.92 427.42 46.92 429.04 91.77 419.61 91.77"/><path class="cls-5" d="M453.23,91.85v-17H430.74V64.94h13.52c9.41-.25,9-1.84,9-17.19V14.56H466.4V64.94h4.07v9.93H466.4v17Z"/><polygon class="cls-5" points="402.38 91.77 402.38 42.75 388.54 42.75 388.54 32.82 402.38 32.82 402.38 25.45 389.73 25.45 389.73 15.52 427.93 15.52 427.93 25.45 415.54 25.45 415.54 32.82 429.04 32.82 429.04 42.75 415.54 42.75 415.54 91.77 402.38 91.77"/><path class="cls-5" d="M291.21,90.76l9.34-59.19H286V21.64H319.4V13.87h13.16v7.77h34.13v9.93H313.88l-1.7,11h49.08V85.23a3.89,3.89,0,0,1-.77,2.44,6.12,6.12,0,0,1-2,1.65,10.62,10.62,0,0,1-2.6,1,12.47,12.47,0,0,1-2.7.32L319,90.5l1.79-9.93,27.34.1V52.47H310.57l-5.95,38.29Z"/><path class="cls-5" d="M186.28,30.54V21.89a4.34,4.34,0,0,1,.55-2.13A5.65,5.65,0,0,1,188.31,18a6.61,6.61,0,0,1,2.51-1.36,10.15,10.15,0,0,1,2.84-.4h25.56v-3.2h13.25v3.2h33.36V30.54H252.67V26.21H199.44v4.33Z"/><polygon class="cls-5" points="236.63 45.99 236.63 42.79 215.49 42.79 215.49 45.99 202.32 45.99 202.32 42.79 185.68 42.79 185.68 32.86 202.32 32.86 202.32 28.93 215.49 28.93 215.49 32.86 236.63 32.86 236.63 28.93 249.7 28.93 249.7 32.86 266.43 32.86 266.43 42.79 249.7 42.79 249.7 45.99 236.63 45.99"/><path class="cls-5" d="M192.05,73.47V53.36a4,4,0,0,1,.72-2.32,6.81,6.81,0,0,1,1.79-1.76A7.73,7.73,0,0,1,197,48.2a10.21,10.21,0,0,1,2.63-.36H259.3V74H246.14V57.77H205.21v15.7Z"/><path class="cls-5" d="M185.68,80.35c16.41,0,19.13-3.62,34-11V59.45l13.16.8V72.67a3.16,3.16,0,0,1-.09.76,5.59,5.59,0,0,1-.25.76H237v6.88H254V77.23h12.31v8.49a3.67,3.67,0,0,1-.55,2,5,5,0,0,1-1.44,1.48,6.47,6.47,0,0,1-2,.89,8.89,8.89,0,0,1-2.12.28H230.77a7.35,7.35,0,0,1-2.12-.33,6.91,6.91,0,0,1-2-.92,5.19,5.19,0,0,1-1.44-1.44,3.47,3.47,0,0,1-.56-2V79.15c-21.94,10.9-16,11.14-38,11.14Z"/><text class="cls-6" transform="translate(337.72 134.92) scale(1.42 1)">Kufos<tspan class="cls-7" x="105.19" y="0">o</tspan><tspan class="cls-8" x="128.43" y="0">f</tspan><tspan class="cls-9" x="143.96" y="0">t</tspan></text></g></g></svg> -->
<svg xmlns="http://www.w3.org/2000/svg" viewBox="0 0 599.53 146.4">
  <defs>
    <style>.cls-1,.cls-6{fill:#e6e6e5;}.cls-1{fill-rule:evenodd;}.cls-2{fill:#e55927;}.cls-3{fill:#32a2d3;}.cls-4{fill:#f1ab40;}.cls-5{fill:#88be43;}.cls-6{font-size:88.45px;font-family:MicrosoftYaHei-Bold, Microsoft YaHei;font-weight:700;}.cls-7{letter-spacing:-0.02em;}.cls-8{letter-spacing:0.02em;}</style>
  </defs>
  <title>资源 15</title>
  <g id="图层_2" data-name="图层 2">
    <g id="图层_1-2" data-name="图层 1">
      <path class="cls-1" d="M543.29,125.83l4.17-.58V113.6h-4v-5.52h4v-6.15h6.95v6.15h3.68v5.52h-3.68v10.69l3.14-.44.63,5.43-3.77.54v12.34a2.19,2.19,0,0,1-.31,1.18,2.86,2.86,0,0,1-.83.87,3.87,3.87,0,0,1-1.12.54,4.5,4.5,0,0,1-1.19.17h-6.64v-5.57h3.14v-8.54l-3.59.49Z"/>
      <path class="cls-1" d="M582.31,118.19a3.57,3.57,0,0,1,1.1.18,3.87,3.87,0,0,1,1,.51,2.89,2.89,0,0,1,.78.85,2.11,2.11,0,0,1,.31,1.13v7.44a2.8,2.8,0,0,1-1,2.23l-6.64,5.53,8.44,8.77h-8.84L573,140c-7.14,6-4.72,4.95-13.73,4.95l-.8-5.57c6.28,0,5,.07,10.13-4.09l-8.92-9.59H568c5.65,5.71,4.15,6.76,10.72,1.34v-3.35H560.07l-.77-5.52h9.6v-6.06h-9.46V106.6h9.46v-4.67h7v4.67h10.22v5.53H575.86v6.06Z"/>
      <polygon class="cls-1" points="512.64 114.15 510.13 103.77 516.5 103.77 518.96 114.15 512.64 114.15"/>
      <polygon class="cls-1" points="511.47 127.03 509.01 116.64 515.38 116.64 517.8 127.03 511.47 127.03"/>
      <polygon class="cls-1" points="486.31 144.8 487.25 119.85 492.28 119.85 491.25 144.8 486.31 144.8"/>
      <polygon class="cls-1" points="502.68 144.8 501.74 119.85 506.81 119.85 507.66 144.8 502.68 144.8"/>
      <path class="cls-1" d="M520.44,144.85V135.4H508.56v-5.52h7.14c5-.14,4.74-1,4.74-9.56V101.85h7v28h2.15v5.52H527.4v9.45Z"/>
      <polygon class="cls-1" points="493.58 144.8 493.58 117.53 486.27 117.53 486.27 112.01 493.58 112.01 493.58 107.91 486.89 107.91 486.89 102.38 507.08 102.38 507.08 107.91 500.53 107.91 500.53 112.01 507.66 112.01 507.66 117.53 500.53 117.53 500.53 144.8 493.58 144.8"/>
      <path class="cls-1" d="M430.78,144.74l4.93-32.93H428v-5.53h17.63V102h6.95v4.32h18v5.53h-27.9l-.89,6.1h25.92v23.75a2.24,2.24,0,0,1-.4,1.36,3.26,3.26,0,0,1-1,.91,5.36,5.36,0,0,1-1.38.54,6.07,6.07,0,0,1-1.42.18l-18.1-.06.95-5.52,14.44.05V123.44H441l-3.14,21.3Z"/>
      <path class="cls-1" d="M370.26,111.73v-4.81a2.49,2.49,0,0,1,.29-1.19,2.86,2.86,0,0,1,.78-1,3.35,3.35,0,0,1,1.33-.76,5.09,5.09,0,0,1,1.5-.22h13.5V102h7v1.79h17.62v7.93h-6.95v-2.41H377.21v2.41Z"/>
      <polygon class="cls-1" points="396.86 120.33 396.86 118.55 385.69 118.55 385.69 120.33 378.73 120.33 378.73 118.55 369.94 118.55 369.94 113.02 378.73 113.02 378.73 110.84 385.69 110.84 385.69 113.02 396.86 113.02 396.86 110.84 403.76 110.84 403.76 113.02 412.6 113.02 412.6 118.55 403.76 118.55 403.76 120.33 396.86 120.33"/>
      <path class="cls-1" d="M373.31,135.61V124.43a2.28,2.28,0,0,1,.38-1.3,3.81,3.81,0,0,1,.94-1,4.31,4.31,0,0,1,1.28-.6,5.3,5.3,0,0,1,1.39-.2h31.53v14.53h-6.95v-9H380.26v8.73Z"/>
      <path class="cls-1" d="M369.94,139.44c8.67,0,10.11-2,17.94-6.1v-5.53l7,.45v6.9a2,2,0,0,1,0,.43,2.83,2.83,0,0,1-.13.42H397v3.83h9V137.7h6.5v4.73a2.09,2.09,0,0,1-.29,1.11,2.73,2.73,0,0,1-.76.83,3.49,3.49,0,0,1-1.05.49,4.56,4.56,0,0,1-1.13.15H393.76a3.79,3.79,0,0,1-1.12-.18,3.59,3.59,0,0,1-1.06-.51,2.89,2.89,0,0,1-.76-.8,2.06,2.06,0,0,1-.29-1.09v-3.66c-11.59,6.07-8.47,6.2-20.09,6.2Z"/>
      <path class="cls-2" d="M12.26,40.93H71a0,0,0,0,1,0,0V78.8a0,0,0,0,1,0,0H-4.74a0,0,0,0,1,0,0V57.93A17,17,0,0,1,12.26,40.93Z" transform="translate(-32.63 40.96) rotate(-45)"/>
      <path class="cls-3" d="M39.26,94.34H98a0,0,0,0,1,0,0v37.87a0,0,0,0,1,0,0H22.26a0,0,0,0,1,0,0V111.34A17,17,0,0,1,39.26,94.34Z" transform="translate(22.55 235.89) rotate(-135)"/>
      <path class="cls-4" d="M92.87,67.41h58.74a0,0,0,0,1,0,0v37.87a0,0,0,0,1,0,0H75.87a0,0,0,0,1,0,0V84.41A17,17,0,0,1,92.87,67.41Z" transform="translate(255.24 66.98) rotate(135)"/>
      <path class="cls-5" d="M65.9,14.19h58.74a0,0,0,0,1,0,0V52.06a0,0,0,0,1,0,0H48.9a0,0,0,0,1,0,0V31.19A17,17,0,0,1,65.9,14.19Z" transform="translate(48.84 -51.65) rotate(45)"/>
      <text class="cls-6" transform="translate(171.91 85.98) scale(1.1 1)">Kufos<tspan class="cls-7" x="256.25" y="0">o</tspan>
        <tspan class="cls-8" x="312.91" y="0">f</tspan>
        <tspan x="350.61" y="0">t</tspan>
      </text>
    </g>
  </g>
</svg>
